<svg xmlns="http://www.w3.org/2000/svg" width="64" height="64" viewBox="0 0 64 64" fill="none">
  <path d="M32 19.62C25.16 19.62 19.62 25.16 19.62 32C19.62 38.84 25.16 44.38 32 44.38C38.84 44.38 44.38 38.84 44.38 32C44.38 25.16 38.84 19.62 32 19.62ZM32 39.98C27.6 39.98 24.02 36.4 24.02 32C24.02 27.6 27.6 24.02 32 24.02C36.4 24.02 39.98 27.6 39.98 32C39.98 36.4 36.4 39.98 32 39.98Z" fill="white"/>
  <path d="M45 17.2C43.4 17.2 42.1 18.5 42.1 20.1C42.1 21.7 43.4 23 45 23C46.6 23 47.9 21.7 47.9 20.1C47.9 18.5 46.6 17.2 45 17.2Z" fill="white"/>
  <path d="M56.24 23.05C56.12 20.5 55.72 18.76 55.13 17.24C54.52 15.66 53.7 14.32 52.36 12.98C51.02 11.64 49.68 10.82 48.1 10.21C46.58 9.62 44.84 9.22 42.29 9.1C39.7 8.98 38.88 8.95 32 8.95C25.12 8.95 24.3 8.98 21.72 9.1C19.16 9.22 17.42 9.62 15.9 10.21C14.32 10.82 12.98 11.64 11.64 12.98C10.3 14.32 9.48 15.66 8.87 17.24C8.28 18.76 7.88 20.5 7.76 23.05C7.64 25.64 7.61 26.46 7.61 33.34C7.61 40.22 7.64 41.04 7.76 43.62C7.88 46.18 8.28 47.92 8.87 49.44C9.48 51.02 10.3 52.36 11.64 53.7C12.98 55.04 14.32 55.86 15.9 56.47C17.42 57.06 19.16 57.46 21.72 57.58C24.3 57.7 25.12 57.73 32 57.73C38.88 57.73 39.7 57.7 42.29 57.58C44.84 57.46 46.58 57.06 48.1 56.47C49.68 55.86 51.02 55.04 52.36 53.7C53.7 52.36 54.52 51.02 55.13 49.44C55.72 47.92 56.12 46.18 56.24 43.62C56.36 41.04 56.39 40.22 56.39 33.34C56.39 26.46 56.36 25.64 56.24 23.05ZM51.85 43.42C51.74 45.76 51.35 47.03 51.02 47.88C50.58 49 50.05 49.8 49.21 50.64C48.37 51.48 47.57 52.01 46.45 52.45C45.6 52.78 44.33 53.17 41.99 53.28C39.46 53.4 38.7 53.43 32 53.43C25.3 53.43 24.54 53.4 22.01 53.28C19.67 53.17 18.4 52.78 17.55 52.45C16.43 52.01 15.63 51.48 14.79 50.64C13.95 49.8 13.42 49 12.98 47.88C12.65 47.03 12.26 45.76 12.15 43.42C12.03 40.89 12 40.13 12 33.34C12 26.55 12.03 25.79 12.15 23.26C12.26 20.92 12.65 19.65 12.98 18.8C13.42 17.68 13.95 16.88 14.79 16.04C15.63 15.2 16.43 14.67 17.55 14.23C18.4 13.9 19.67 13.51 22.01 13.4C24.54 13.28 25.3 13.25 32 13.25C38.7 13.25 39.46 13.28 41.99 13.4C44.33 13.51 45.6 13.9 46.45 14.23C47.57 14.67 48.37 15.2 49.21 16.04C50.05 16.88 50.58 17.68 51.02 18.8C51.35 19.65 51.74 20.92 51.85 23.26C51.97 25.79 52 26.55 52 33.34C52 40.13 51.97 40.89 51.85 43.42Z" fill="white"/>
</svg>