<svg xmlns="http://www.w3.org/2000/svg" width="64" height="64" viewBox="0 0 64 64" fill="none">
  <path d="M59.2 19.68C58.56 17.28 56.68 15.4 54.28 14.76C49.92 13.6 32.48 13.6 32.48 13.6C32.48 13.6 15.04 13.6 10.68 14.76C8.28 15.4 6.4 17.28 5.76 19.68C4.6 24.04 4.6 33.12 4.6 33.12C4.6 33.12 4.6 42.2 5.76 46.56C6.4 48.96 8.28 50.84 10.68 51.48C15.04 52.64 32.48 52.64 32.48 52.64C32.48 52.64 49.92 52.64 54.28 51.48C56.68 50.84 58.56 48.96 59.2 46.56C60.36 42.2 60.36 33.12 60.36 33.12C60.36 33.12 60.36 24.04 59.2 19.68ZM26.88 41.36V24.88L41.36 33.12L26.88 41.36Z" fill="white"/>
</svg>